<?xml version="1.0" encoding="UTF-8" standalone="no"?>
<!-- Created with Inkscape (http://www.inkscape.org/) -->

<svg
   width="99.999992"
   height="100"
   viewBox="0 0 26.458331 26.458332"
   version="1.1"
   id="svg5"
   inkscape:version="1.2.2 (b0a8486541, 2022-12-01)"
   sodipodi:docname="not_load_image.svg"
   inkscape:export-filename="src/main/resources/io/github/moacirrf/netbeans/markdown/not_load_image.png"
   inkscape:export-xdpi="61.440006"
   inkscape:export-ydpi="61.440006"
   xml:space="preserve"
   xmlns:inkscape="http://www.inkscape.org/namespaces/inkscape"
   xmlns:sodipodi="http://sodipodi.sourceforge.net/DTD/sodipodi-0.dtd"
   xmlns="http://www.w3.org/2000/svg"
   xmlns:svg="http://www.w3.org/2000/svg"><sodipodi:namedview
     id="namedview7"
     pagecolor="#ffffff"
     bordercolor="#666666"
     borderopacity="1.0"
     inkscape:showpageshadow="2"
     inkscape:pageopacity="0.0"
     inkscape:pagecheckerboard="0"
     inkscape:deskcolor="#d1d1d1"
     inkscape:document-units="px"
     showgrid="false"
     inkscape:zoom="5.5517957"
     inkscape:cx="30.080358"
     inkscape:cy="72.318944"
     inkscape:window-width="1920"
     inkscape:window-height="1026"
     inkscape:window-x="1366"
     inkscape:window-y="0"
     inkscape:window-maximized="1"
     inkscape:current-layer="svg5"
     showguides="true"
     inkscape:lockguides="false"><sodipodi:guide
       position="13.34471,35.152612"
       orientation="1,0"
       id="guide4604"
       inkscape:locked="false" /><sodipodi:guide
       position="-18.252728,13.257273"
       orientation="0,-1"
       id="guide337"
       inkscape:locked="false" /></sodipodi:namedview><defs
     id="defs2"><filter
       inkscape:collect="always"
       style="color-interpolation-filters:sRGB"
       id="filter1356"
       x="-0.016557091"
       y="-0.13200399"
       width="1.0331142"
       height="1.264008"><feGaussianBlur
         inkscape:collect="always"
         stdDeviation="0.18386616"
         id="feGaussianBlur1358" /></filter></defs><g
     inkscape:groupmode="layer"
     id="layer3"
     inkscape:label="background_dark"
     style="display:inline"
     sodipodi:insensitive="true"><rect
       style="display:inline;fill:#6e6e6e;fill-opacity:1;stroke:#6e6e6e;stroke-width:1.99307;stroke-dasharray:none;stroke-opacity:1"
       id="rect234-5"
       width="24.46526"
       height="24.465261"
       x="81.072807"
       y="24.267183"
       transform="translate(-80.076273,-23.270648)"
       rx="0.13229166" /></g><g
     inkscape:groupmode="layer"
     id="layer5"
     inkscape:label="icon_preview.png"
     style="display:inline;fill:#cccccc"
     transform="matrix(0.9074517,0,0,0.78542945,1.2243368,0.91775971)"
     sodipodi:insensitive="true"><g
       id="g1091"
       transform="matrix(0.07696969,0,0,0.07696969,0.52916665,0.52916665)"
       style="fill:#ffffff"><g
         id="XMLID_11_"
         style="fill:#ffffff">
	<path
   id="XMLID_12_"
   d="m 195,150 c 27.57,0 50,-22.43 50,-50 0,-27.57 -22.43,-50 -50,-50 -27.57,0 -50,22.43 -50,50 0,27.57 22.43,50 50,50 z"
   style="fill:#ffffff;fill-opacity:1" />
	<path
   id="XMLID_13_"
   d="M 315,0 H 15 C 6.716,0 0,6.716 0,15 v 239.804 c 0,0.01 0,0.02 0,0.03 V 315 c 0,8.284 6.716,15 15,15 h 300 c 8.284,0 15,-6.716 15,-15 V 15 C 330,6.716 323.284,0 315,0 Z m -15,209.636 -32.957,-44.388 c -2.829,-3.811 -7.296,-6.058 -12.043,-6.058 -4.747,0 -9.214,2.247 -12.043,6.058 L 195.426,229.264 117.333,116.462 C 114.531,112.415 109.922,110 105,110 c -4.922,0 -9.531,2.415 -12.333,6.462 L 30,206.981 V 30 h 270 z"
   style="fill:#ffffff;fill-opacity:1" />
</g><g
         id="g1038"
         style="fill:#ffffff">
</g><g
         id="g1040"
         style="fill:#ffffff">
</g><g
         id="g1042"
         style="fill:#ffffff">
</g><g
         id="g1044"
         style="fill:#ffffff">
</g><g
         id="g1046"
         style="fill:#ffffff">
</g><g
         id="g1048"
         style="fill:#ffffff">
</g><g
         id="g1050"
         style="fill:#ffffff">
</g><g
         id="g1052"
         style="fill:#ffffff">
</g><g
         id="g1054"
         style="fill:#ffffff">
</g><g
         id="g1056"
         style="fill:#ffffff">
</g><g
         id="g1058"
         style="fill:#ffffff">
</g><g
         id="g1060"
         style="fill:#ffffff">
</g><g
         id="g1062"
         style="fill:#ffffff">
</g><g
         id="g1064"
         style="fill:#ffffff">
</g><g
         id="g1066"
         style="fill:#ffffff">
</g></g><text
       xml:space="preserve"
       style="font-weight:bold;font-size:3.34292px;font-family:'Droid Sans';-inkscape-font-specification:'Droid Sans Bold';fill:#000000;fill-opacity:1;stroke-width:2.00795;filter:url(#filter1356)"
       x="-0.99051952"
       y="27.732111"
       id="text405"
       transform="matrix(0.9303403,0,0,1.0748755,1.7494044,0)"><tspan
         sodipodi:role="line"
         id="tspan403"
         style="font-size:3.34292px;fill:#000000;fill-opacity:1;stroke-width:2.00795"
         x="-0.99051952"
         y="27.732111">Can't load image</tspan></text><text
       xml:space="preserve"
       style="font-weight:bold;font-size:3.34292px;font-family:'Droid Sans';-inkscape-font-specification:'Droid Sans Bold';display:inline;fill:#ffffff;fill-opacity:1;stroke-width:2.00795"
       x="0.95251888"
       y="27.512791"
       id="text405-3"
       transform="scale(0.9303403,1.0748755)"><tspan
         sodipodi:role="line"
         id="tspan403-6"
         style="font-size:3.34292px;fill:#ffffff;fill-opacity:1;stroke-width:2.00795"
         x="0.95251888"
         y="27.512791">Can't load image</tspan></text></g><g
     inkscape:groupmode="layer"
     id="layer1"
     inkscape:label="break" /><path
     style="fill:none;fill-opacity:1;stroke:#6e6e6e;stroke-width:1.32292;stroke-dasharray:none;stroke-opacity:1"
     d="m 0.99584137,21.589685 5.11730333,-6.155464 4.4800063,1.825546 2.751559,-5.123065 6.910996,2.667997 5.205399,-13.7792895 v 0"
     id="path2388"
     sodipodi:nodetypes="ccccccc" /></svg>
